<svg width="49" height="45" viewBox="0 0 49 45" fill="none" xmlns="http://www.w3.org/2000/svg">
<rect width="49" height="45" rx="8" fill="#092C4C"/>
<mask id="mask0_34_22" style="mask-type:alpha" maskUnits="userSpaceOnUse" x="12" y="1" width="25" height="24">
<rect x="12.1033" y="1" width="24" height="24" fill="white"/>
</mask>
<g mask="url(#mask0_34_22)">
<path d="M23.1033 22.725V13.575L15.1033 8.95V16.975C15.1033 17.3417 15.1908 17.675 15.3658 17.975C15.5408 18.275 15.7866 18.5167 16.1033 18.7L23.1033 22.725ZM25.1033 22.725L32.1033 18.7C32.4199 18.5167 32.6658 18.275 32.8408 17.975C33.0158 17.675 33.1033 17.3417 33.1033 16.975V8.95L25.1033 13.575V22.725ZM29.0783 8.975L32.0283 7.25L25.1033 3.275C24.7866 3.09167 24.4533 3 24.1033 3C23.7533 3 23.4199 3.09167 23.1033 3.275L21.1283 4.4L29.0783 8.975ZM24.1033 11.85L27.0783 10.15L19.1533 5.55L16.1533 7.275L24.1033 11.85Z" fill="white"/>
</g>
<mask id="mask1_34_22" style="mask-type:alpha" maskUnits="userSpaceOnUse" x="22" y="18" width="25" height="24">
<rect x="22.1033" y="18" width="24" height="24" fill="white"/>
</mask>
<g mask="url(#mask1_34_22)">
<path d="M33.1033 39.725V30.575L25.1033 25.95V33.975C25.1033 34.3417 25.1908 34.675 25.3658 34.975C25.5408 35.275 25.7866 35.5167 26.1033 35.7L33.1033 39.725ZM35.1033 39.725L42.1033 35.7C42.4199 35.5167 42.6658 35.275 42.8408 34.975C43.0158 34.675 43.1033 34.3417 43.1033 33.975V25.95L35.1033 30.575V39.725ZM39.0783 25.975L42.0283 24.25L35.1033 20.275C34.7866 20.0917 34.4533 20 34.1033 20C33.7533 20 33.4199 20.0917 33.1033 20.275L31.1283 21.4L39.0783 25.975ZM34.1033 28.85L37.0783 27.15L29.1533 22.55L26.1533 24.275L34.1033 28.85Z" fill="white"/>
</g>
<mask id="mask2_34_22" style="mask-type:alpha" maskUnits="userSpaceOnUse" x="2" y="18" width="24" height="25">
<rect x="2" y="18.0554" width="24" height="24" fill="white"/>
</mask>
<g mask="url(#mask2_34_22)">
<path d="M13 39.7804V30.6304L5 26.0054V34.0304C5 34.3971 5.0875 34.7304 5.2625 35.0304C5.4375 35.3304 5.68333 35.5721 6 35.7554L13 39.7804ZM15 39.7804L22 35.7554C22.3167 35.5721 22.5625 35.3304 22.7375 35.0304C22.9125 34.7304 23 34.3971 23 34.0304V26.0054L15 30.6304V39.7804ZM18.975 26.0304L21.925 24.3054L15 20.3304C14.6833 20.1471 14.35 20.0554 14 20.0554C13.65 20.0554 13.3167 20.1471 13 20.3304L11.025 21.4554L18.975 26.0304ZM14 28.9054L16.975 27.2054L9.05 22.6054L6.05 24.3304L14 28.9054Z" fill="white"/>
</g>
</svg>
